<svg height="512pt" viewBox="-5 0 512 512.00101" width="512pt" xmlns="http://www.w3.org/2000/svg"><path d="m359.746094 0h-171.023438c-4.171875 0-7.554687 3.382812-7.554687 7.554688 0 4.171874 3.382812 7.550781 7.554687 7.550781h171.023438c8.273437 0 15.003906 6.730469 15.003906 15.003906v196.121094h-246.972656v-196.121094c0-8.273437 6.730468-15.003906 15-15.003906h15.730468c4.171876 0 7.554688-3.378907 7.554688-7.550781 0-4.171876-3.382812-7.554688-7.554688-7.554688h-15.730468c-16.601563 0-30.105469 13.507812-30.105469 30.109375v451.78125c0 16.601563 13.503906 30.109375 30.105469 30.109375h216.96875c16.601562 0 30.109375-13.507812 30.109375-30.109375v-451.78125c0-16.601563-13.507813-30.109375-30.109375-30.109375zm15.003906 481.890625c0 8.273437-6.730469 15.003906-15.003906 15.003906h-216.96875c-8.269532 0-15-6.730469-15-15.003906v-240.554687h246.96875v240.554687zm0 0"/><path d="m300.613281 115.960938c0-27.214844-22.136719-49.351563-49.351562-49.351563-27.210938 0-49.351563 22.136719-49.351563 49.351563 0 27.210937 22.140625 49.351562 49.351563 49.351562 27.214843 0 49.351562-22.140625 49.351562-49.351562zm-83.59375 0c0-18.882813 15.359375-34.246094 34.242188-34.246094 18.882812 0 34.246093 15.363281 34.246093 34.246094 0 18.882812-15.363281 34.242187-34.246093 34.242187-18.882813 0-34.242188-15.363281-34.242188-34.242187zm0 0"/><path d="m274.425781 108.339844c0 6.394531-5.183593 11.582031-11.582031 11.582031-6.394531 0-11.582031-5.1875-11.582031-11.582031 0-6.398438 5.1875-11.582032 11.582031-11.582032 6.398438 0 11.582031 5.183594 11.582031 11.582032zm0 0"/><path d="m251.261719 467.875c53.589843 0 97.191406-43.597656 97.191406-97.1875 0-33.371094-16.859375-64.035156-45.101563-82.027344-3.519531-2.242187-8.1875-1.207031-10.429687 2.3125-2.238281 3.519532-1.203125 8.1875 2.3125 10.429688 23.867187 15.203125 38.113281 41.105468 38.113281 69.285156 0 45.257812-36.824218 82.082031-82.082031 82.082031-45.261719 0-82.085937-36.824219-82.085937-82.082031 0-52.558594 49.105468-91.960938 100.691406-79.957031 4.058594.9375 8.121094-1.582031 9.066406-5.648438.945312-4.0625-1.582031-8.125-5.644531-9.066406-61.105469-14.214844-119.21875 32.464844-119.21875 94.671875-.003907 53.589844 43.597656 97.1875 97.1875 97.1875zm0 0"/><path d="m251.261719 319.265625c22.96875 0 43.335937 15.453125 49.527343 37.582031 1.125 4.015625 5.292969 6.359375 9.3125 5.238282 4.015626-1.125 6.363282-5.292969 5.238282-9.3125-8.011719-28.621094-34.359375-48.613282-64.078125-48.613282-36.679688 0-66.523438 29.84375-66.523438 66.527344 0 36.679688 29.84375 66.523438 66.523438 66.523438 30.757812 0 57.335937-20.863282 64.632812-50.734376.988281-4.054687-1.492187-8.140624-5.546875-9.132812-4.058594-.992188-8.140625 1.492188-9.128906 5.542969-5.640625 23.089843-26.183594 39.214843-49.957031 39.214843-28.351563 0-51.417969-23.066406-51.417969-51.417968 0-28.351563 23.066406-51.417969 51.417969-51.417969zm0 0"/><path d="m57.585938 414.066406c-57.6367192-33.261718-56.480469-117.238281 2.507812-148.617187 3.683594-1.960938 5.078125-6.535157 3.121094-10.214844-1.960938-3.683594-6.535156-5.082031-10.21875-3.121094-69.507813 36.972657-70.796875 135.890625-2.964844 175.039063 3.609375 2.078125 8.230469.851562 10.320312-2.769532 2.085938-3.613281.847657-8.230468-2.765624-10.316406zm0 0"/><path d="m75.761719 394.503906c-43.660157-23.554687-42.871094-86.511718 1.753906-108.773437 3.734375-1.859375 5.25-6.398438 3.386719-10.128907-1.859375-3.734374-6.398438-5.25-10.128906-3.386718-55.636719 27.75-56.535157 106.261718-2.183594 135.582031 3.695312 1.996094 8.265625.585937 10.234375-3.058594 1.980469-3.671875.609375-8.253906-3.0625-10.234375zm0 0"/><path d="m95.382812 306.566406c3.785157-1.75 5.433594-6.238281 3.683594-10.023437-1.75-3.789063-6.238281-5.441407-10.027344-3.6875-39.828124 18.417969-41.199218 75.191406-1.246093 94.964843 1.078125.535157 2.21875.785157 3.34375.785157 7.976562 0 10.472656-10.800781 3.355469-14.324219-28.511719-14.109375-27.523438-54.574219.890624-67.714844zm0 0"/><path d="m452.492188 252.238281c-3.609376-2.085937-8.234376-.847656-10.316407 2.765625-2.085937 3.613282-.847656 8.234375 2.765625 10.316406 57.632813 33.261719 56.476563 117.242188-2.507812 148.617188-3.683594 1.960938-5.082032 6.535156-3.121094 10.21875 1.957031 3.683594 6.53125 5.078125 10.214844 3.121094 69.507812-36.976563 70.796875-135.894532 2.964844-175.039063zm0 0"/><path d="m433.9375 271.589844c-3.671875-1.980469-8.253906-.609375-10.234375 3.0625s-.609375 8.253906 3.0625 10.234375c43.660156 23.554687 42.867187 86.511719-1.757813 108.769531-3.730468 1.863281-5.25 6.398438-3.386718 10.132812 1.867187 3.738282 6.402344 5.246094 10.132812 3.386719 55.636719-27.75 56.535156-106.265625 2.183594-135.585937zm0 0"/><path d="m414.734375 291.566406c-3.738281-1.851562-8.273437-.320312-10.121094 3.417969-1.851562 3.738281-.320312 8.269531 3.417969 10.121094 28.515625 14.113281 27.527344 54.578125-.886719 67.714843-3.785156 1.75-5.4375 6.238282-3.683593 10.027344 1.742187 3.765625 6.222656 5.445313 10.023437 3.6875 39.832031-18.417968 41.203125-75.191406 1.25-94.96875zm0 0"/></svg>